<svg width="20" height="21" viewBox="0 0 16 17" fill="none" xmlns="http://www.w3.org/2000/svg">
<path d="M4.09393 16.2898C4.12212 16.2606 4.14842 16.2297 4.17274 16.1972C4.44553 15.7903 4.386 15.2462 4.03165 14.9079L3.72514 14.6014C3.61929 14.4959 3.49787 14.4073 3.36511 14.3387L3.00021 14.1489L12.0691 14.1489C12.5631 14.1682 12.9981 13.826 13.0957 13.3413C13.1736 12.8096 12.8057 12.3153 12.274 12.2374C12.2239 12.23 12.1733 12.2266 12.1226 12.2271L3.01481 12.2271L3.30186 12.0958C3.4553 12.0248 3.59524 11.9276 3.71541 11.8087L4.03652 11.4876C4.39086 11.1494 4.4504 10.6052 4.17761 10.1983C3.86012 9.76473 3.25126 9.67058 2.81764 9.98807C2.78261 10.0137 2.74932 10.0417 2.71803 10.0718L0.285391 12.5045C-0.0948306 12.8842 -0.0951645 13.5003 0.284631 13.8806C0.284874 13.8808 0.285147 13.8811 0.285391 13.8813L2.71803 16.314C3.10466 16.6872 3.72067 16.6764 4.09393 16.2898Z" fill="#273140"/>
<path d="M13.3112 6.51981L15.7146 4.12123C16.0948 3.74143 16.0952 3.12534 15.7154 2.74512C15.7151 2.74487 15.7149 2.7446 15.7146 2.74436L13.282 0.31172C12.9437 -0.0426241 12.3996 -0.102163 11.9927 0.170627C11.5591 0.488116 11.4649 1.09697 11.7824 1.53059C11.8081 1.56562 11.8361 1.59892 11.8662 1.63021L12.197 1.96105C12.3557 2.11962 12.5488 2.23952 12.7614 2.31135L13.063 2.44271L3.87254 2.44271C3.37546 2.42425 2.93935 2.77148 2.84596 3.26007C2.75994 3.79054 3.12021 4.29033 3.65071 4.37635C3.70636 4.38538 3.76267 4.38955 3.81902 4.38882L13.063 4.38882L12.7857 4.48612C12.5806 4.55919 12.3944 4.67721 12.2408 4.83156L11.8905 5.18186C11.5104 5.56171 11.5101 6.17781 11.89 6.55797C11.9089 6.57685 11.9285 6.59498 11.9489 6.61225C12.3585 6.93859 12.9494 6.89848 13.3112 6.51981Z" fill="#273140"/>
</svg>
